<mxfile host="app.diagrams.net" modified="2021-11-13T17:59:33.514Z" agent="5.0 (Windows NT 10.0; Win64; x64) AppleWebKit/537.36 (KHTML, like Gecko) Chrome/95.0.4638.69 Safari/537.36" etag="f-4mXGVxxCxOrKVpvnIJ" version="15.7.3" type="github" pages="3">
  <diagram id="C5RBs43oDa-KdzZeNtuy" name="use case">
    <mxGraphModel dx="1468" dy="796" grid="1" gridSize="10" guides="1" tooltips="1" connect="1" arrows="1" fold="1" page="1" pageScale="1" pageWidth="827" pageHeight="1169" math="0" shadow="0">
      <root>
        <mxCell id="WIyWlLk6GJQsqaUBKTNV-0" />
        <mxCell id="WIyWlLk6GJQsqaUBKTNV-1" parent="WIyWlLk6GJQsqaUBKTNV-0" />
        <mxCell id="R1AbxzGF3tNtCaSV0Vns-0" value="&lt;font size=&quot;1&quot;&gt;&lt;b&gt;uc SISTEM YANG BERJALAN&lt;/b&gt;&lt;/font&gt;" style="shape=umlFrame;whiteSpace=wrap;html=1;hachureGap=4;pointerEvents=0;fontFamily=Times New Roman;fontSize=20;width=210;height=20;fillColor=#97D077;strokeColor=#909090;fontColor=#1A1A1A;align=left;" vertex="1" parent="WIyWlLk6GJQsqaUBKTNV-1">
          <mxGeometry x="40" y="40" width="560" height="640" as="geometry" />
        </mxCell>
        <mxCell id="P93kdAKWn613RfKLbOwr-4" value="" style="rounded=0;whiteSpace=wrap;html=1;hachureGap=4;fontFamily=Architects Daughter;fontSource=https%3A%2F%2Ffonts.googleapis.com%2Fcss%3Ffamily%3DArchitects%2BDaughter;fontSize=20;fillColor=none;" vertex="1" parent="WIyWlLk6GJQsqaUBKTNV-1">
          <mxGeometry x="160" y="79" width="320" height="560" as="geometry" />
        </mxCell>
        <mxCell id="P93kdAKWn613RfKLbOwr-18" style="edgeStyle=none;curved=1;rounded=0;hachureGap=4;orthogonalLoop=1;jettySize=auto;html=1;entryX=0;entryY=0.5;entryDx=0;entryDy=0;fontFamily=Times New Roman;fontSize=12;endArrow=none;startSize=14;endSize=14;sourcePerimeterSpacing=8;targetPerimeterSpacing=8;endFill=0;" edge="1" parent="WIyWlLk6GJQsqaUBKTNV-1" source="P93kdAKWn613RfKLbOwr-5" target="P93kdAKWn613RfKLbOwr-10">
          <mxGeometry relative="1" as="geometry" />
        </mxCell>
        <mxCell id="P93kdAKWn613RfKLbOwr-32" style="edgeStyle=none;curved=1;rounded=0;hachureGap=4;orthogonalLoop=1;jettySize=auto;html=1;entryX=0;entryY=0.5;entryDx=0;entryDy=0;fontFamily=Times New Roman;fontSize=12;endArrow=none;endFill=0;startSize=14;endSize=14;sourcePerimeterSpacing=8;targetPerimeterSpacing=8;" edge="1" parent="WIyWlLk6GJQsqaUBKTNV-1" source="P93kdAKWn613RfKLbOwr-5" target="P93kdAKWn613RfKLbOwr-16">
          <mxGeometry relative="1" as="geometry" />
        </mxCell>
        <mxCell id="P93kdAKWn613RfKLbOwr-5" value="&lt;span style=&quot;background-color: rgb(255, 255, 255); font-size: 12px;&quot;&gt;Pemohon&lt;/span&gt;" style="shape=umlActor;verticalLabelPosition=bottom;verticalAlign=top;html=1;outlineConnect=0;hachureGap=4;fontFamily=Times New Roman;fontSize=12;fillColor=#B9E0A5;" vertex="1" parent="WIyWlLk6GJQsqaUBKTNV-1">
          <mxGeometry x="81" y="99" width="30" height="60" as="geometry" />
        </mxCell>
        <mxCell id="P93kdAKWn613RfKLbOwr-19" style="edgeStyle=none;curved=1;rounded=0;hachureGap=4;orthogonalLoop=1;jettySize=auto;html=1;entryX=1;entryY=0.5;entryDx=0;entryDy=0;fontFamily=Times New Roman;fontSize=12;endArrow=none;endFill=0;startSize=14;endSize=14;sourcePerimeterSpacing=8;targetPerimeterSpacing=8;" edge="1" parent="WIyWlLk6GJQsqaUBKTNV-1" source="P93kdAKWn613RfKLbOwr-8" target="P93kdAKWn613RfKLbOwr-10">
          <mxGeometry relative="1" as="geometry" />
        </mxCell>
        <mxCell id="P93kdAKWn613RfKLbOwr-20" style="edgeStyle=none;curved=1;rounded=0;hachureGap=4;orthogonalLoop=1;jettySize=auto;html=1;entryX=1;entryY=0.5;entryDx=0;entryDy=0;fontFamily=Times New Roman;fontSize=12;endArrow=none;endFill=0;startSize=14;endSize=14;sourcePerimeterSpacing=8;targetPerimeterSpacing=8;" edge="1" parent="WIyWlLk6GJQsqaUBKTNV-1" source="P93kdAKWn613RfKLbOwr-8" target="P93kdAKWn613RfKLbOwr-12">
          <mxGeometry relative="1" as="geometry" />
        </mxCell>
        <mxCell id="P93kdAKWn613RfKLbOwr-21" style="edgeStyle=none;curved=1;rounded=0;hachureGap=4;orthogonalLoop=1;jettySize=auto;html=1;entryX=1;entryY=0.5;entryDx=0;entryDy=0;fontFamily=Times New Roman;fontSize=12;endArrow=none;endFill=0;startSize=14;endSize=14;sourcePerimeterSpacing=8;targetPerimeterSpacing=8;" edge="1" parent="WIyWlLk6GJQsqaUBKTNV-1" source="P93kdAKWn613RfKLbOwr-8" target="P93kdAKWn613RfKLbOwr-13">
          <mxGeometry relative="1" as="geometry" />
        </mxCell>
        <mxCell id="P93kdAKWn613RfKLbOwr-22" style="edgeStyle=none;curved=1;rounded=0;hachureGap=4;orthogonalLoop=1;jettySize=auto;html=1;entryX=1;entryY=0.5;entryDx=0;entryDy=0;fontFamily=Times New Roman;fontSize=12;endArrow=none;endFill=0;startSize=14;endSize=14;sourcePerimeterSpacing=8;targetPerimeterSpacing=8;" edge="1" parent="WIyWlLk6GJQsqaUBKTNV-1" source="P93kdAKWn613RfKLbOwr-8" target="P93kdAKWn613RfKLbOwr-14">
          <mxGeometry relative="1" as="geometry" />
        </mxCell>
        <mxCell id="P93kdAKWn613RfKLbOwr-26" style="edgeStyle=none;curved=1;rounded=0;hachureGap=4;orthogonalLoop=1;jettySize=auto;html=1;entryX=1;entryY=0.5;entryDx=0;entryDy=0;fontFamily=Times New Roman;fontSize=14;endArrow=none;endFill=0;startSize=14;endSize=14;sourcePerimeterSpacing=8;targetPerimeterSpacing=8;" edge="1" parent="WIyWlLk6GJQsqaUBKTNV-1" source="P93kdAKWn613RfKLbOwr-8" target="P93kdAKWn613RfKLbOwr-25">
          <mxGeometry relative="1" as="geometry" />
        </mxCell>
        <mxCell id="P93kdAKWn613RfKLbOwr-37" style="edgeStyle=none;curved=1;rounded=0;hachureGap=4;orthogonalLoop=1;jettySize=auto;html=1;entryX=0;entryY=0.5;entryDx=0;entryDy=0;fontFamily=Times New Roman;fontSize=14;endArrow=none;endFill=0;startSize=14;endSize=14;sourcePerimeterSpacing=8;targetPerimeterSpacing=8;" edge="1" parent="WIyWlLk6GJQsqaUBKTNV-1" source="P93kdAKWn613RfKLbOwr-9" target="P93kdAKWn613RfKLbOwr-25">
          <mxGeometry relative="1" as="geometry" />
        </mxCell>
        <mxCell id="P93kdAKWn613RfKLbOwr-38" style="edgeStyle=none;curved=1;rounded=0;hachureGap=4;orthogonalLoop=1;jettySize=auto;html=1;entryX=0;entryY=0.5;entryDx=0;entryDy=0;fontFamily=Times New Roman;fontSize=12;endArrow=none;endFill=0;startSize=14;endSize=14;sourcePerimeterSpacing=8;targetPerimeterSpacing=8;" edge="1" parent="WIyWlLk6GJQsqaUBKTNV-1" source="P93kdAKWn613RfKLbOwr-9" target="P93kdAKWn613RfKLbOwr-15">
          <mxGeometry relative="1" as="geometry" />
        </mxCell>
        <mxCell id="P93kdAKWn613RfKLbOwr-9" value="Kepala Desa" style="shape=umlActor;verticalLabelPosition=bottom;verticalAlign=top;html=1;outlineConnect=0;hachureGap=4;fontFamily=Times New Roman;fontSize=12;fillColor=#B9E0A5;" vertex="1" parent="WIyWlLk6GJQsqaUBKTNV-1">
          <mxGeometry x="81" y="389" width="30" height="60" as="geometry" />
        </mxCell>
        <mxCell id="P93kdAKWn613RfKLbOwr-10" value="Penyerahan berkas pengajuan/permohonan" style="ellipse;whiteSpace=wrap;html=1;hachureGap=4;fontFamily=Times New Roman;fontSize=12;fillColor=#B9E0A5;" vertex="1" parent="WIyWlLk6GJQsqaUBKTNV-1">
          <mxGeometry x="238" y="99" width="160" height="60" as="geometry" />
        </mxCell>
        <mxCell id="P93kdAKWn613RfKLbOwr-12" value="Pengecekan kelengkapan berkas persyaratan" style="ellipse;whiteSpace=wrap;html=1;hachureGap=4;fontFamily=Times New Roman;fontSize=12;fillColor=#B9E0A5;" vertex="1" parent="WIyWlLk6GJQsqaUBKTNV-1">
          <mxGeometry x="238" y="169" width="160" height="60" as="geometry" />
        </mxCell>
        <mxCell id="P93kdAKWn613RfKLbOwr-13" value="Membuat surat yang dibutuhkan" style="ellipse;whiteSpace=wrap;html=1;hachureGap=4;fontFamily=Times New Roman;fontSize=12;fillColor=#B9E0A5;" vertex="1" parent="WIyWlLk6GJQsqaUBKTNV-1">
          <mxGeometry x="238" y="249" width="160" height="60" as="geometry" />
        </mxCell>
        <mxCell id="P93kdAKWn613RfKLbOwr-14" value="Mencetak Surat" style="ellipse;whiteSpace=wrap;html=1;hachureGap=4;fontFamily=Times New Roman;fontSize=12;fillColor=#B9E0A5;" vertex="1" parent="WIyWlLk6GJQsqaUBKTNV-1">
          <mxGeometry x="238" y="319" width="160" height="60" as="geometry" />
        </mxCell>
        <mxCell id="P93kdAKWn613RfKLbOwr-15" value="Melegalisir dan TTD" style="ellipse;whiteSpace=wrap;html=1;hachureGap=4;fontFamily=Times New Roman;fontSize=12;fillColor=#B9E0A5;" vertex="1" parent="WIyWlLk6GJQsqaUBKTNV-1">
          <mxGeometry x="238" y="389" width="160" height="60" as="geometry" />
        </mxCell>
        <mxCell id="P93kdAKWn613RfKLbOwr-16" value="Surat Selesai" style="ellipse;whiteSpace=wrap;html=1;hachureGap=4;fontFamily=Times New Roman;fontSize=12;fillColor=#B9E0A5;" vertex="1" parent="WIyWlLk6GJQsqaUBKTNV-1">
          <mxGeometry x="238" y="469" width="160" height="60" as="geometry" />
        </mxCell>
        <mxCell id="P93kdAKWn613RfKLbOwr-25" value="Laporan" style="ellipse;whiteSpace=wrap;html=1;hachureGap=4;fontFamily=Times New Roman;fontSize=14;fillColor=#B9E0A5;" vertex="1" parent="WIyWlLk6GJQsqaUBKTNV-1">
          <mxGeometry x="238" y="549" width="160" height="60" as="geometry" />
        </mxCell>
        <mxCell id="P93kdAKWn613RfKLbOwr-33" style="edgeStyle=none;curved=1;rounded=0;hachureGap=4;orthogonalLoop=1;jettySize=auto;html=1;entryX=1;entryY=0.5;entryDx=0;entryDy=0;fontFamily=Times New Roman;fontSize=12;endArrow=none;endFill=0;startSize=14;endSize=14;sourcePerimeterSpacing=8;targetPerimeterSpacing=8;" edge="1" parent="WIyWlLk6GJQsqaUBKTNV-1" source="P93kdAKWn613RfKLbOwr-8" target="P93kdAKWn613RfKLbOwr-15">
          <mxGeometry relative="1" as="geometry" />
        </mxCell>
        <mxCell id="P93kdAKWn613RfKLbOwr-36" style="edgeStyle=none;curved=1;rounded=0;hachureGap=4;orthogonalLoop=1;jettySize=auto;html=1;entryX=1;entryY=0.5;entryDx=0;entryDy=0;fontFamily=Times New Roman;fontSize=12;endArrow=none;endFill=0;startSize=14;endSize=14;sourcePerimeterSpacing=8;targetPerimeterSpacing=8;" edge="1" parent="WIyWlLk6GJQsqaUBKTNV-1" source="P93kdAKWn613RfKLbOwr-8" target="P93kdAKWn613RfKLbOwr-16">
          <mxGeometry relative="1" as="geometry" />
        </mxCell>
        <mxCell id="P93kdAKWn613RfKLbOwr-8" value="&lt;span style=&quot;background-color: rgb(255, 255, 255); font-size: 12px;&quot;&gt;Staff Administrasi&lt;/span&gt;" style="shape=umlActor;verticalLabelPosition=bottom;verticalAlign=top;html=1;outlineConnect=0;hachureGap=4;fontFamily=Times New Roman;fontSize=12;fillColor=#B9E0A5;" vertex="1" parent="WIyWlLk6GJQsqaUBKTNV-1">
          <mxGeometry x="519" y="99" width="30" height="60" as="geometry" />
        </mxCell>
      </root>
    </mxGraphModel>
  </diagram>
  <diagram name="act-diagram" id="EzQDBCoAbCLYZZ4XYxiy">
    <mxGraphModel dx="1783" dy="967" grid="1" gridSize="10" guides="1" tooltips="1" connect="1" arrows="1" fold="1" page="1" pageScale="1" pageWidth="827" pageHeight="1169" math="0" shadow="0">
      <root>
        <mxCell id="nnEQlcjSg8EqqNv9_jPq-0" />
        <mxCell id="nnEQlcjSg8EqqNv9_jPq-1" parent="nnEQlcjSg8EqqNv9_jPq-0" />
        <mxCell id="rQhidSEt4k1ycaJ4zwV_-0" value="&lt;font size=&quot;1&quot;&gt;&lt;b&gt;act SISTEM YANG BERJALAN&lt;/b&gt;&lt;/font&gt;" style="shape=umlFrame;whiteSpace=wrap;html=1;hachureGap=4;pointerEvents=0;fontFamily=Times New Roman;fontSize=20;width=210;height=20;fillColor=#97D077;strokeColor=#909090;fontColor=#1A1A1A;align=left;" vertex="1" parent="nnEQlcjSg8EqqNv9_jPq-1">
          <mxGeometry x="80" y="40" width="680" height="960" as="geometry" />
        </mxCell>
        <mxCell id="Gp1zR7eavyP5q6iyYhlP-24" value="Pemohon" style="swimlane;startSize=20;hachureGap=4;pointerEvents=0;fontFamily=Times New Roman;fontSize=12;align=center;fillColor=none;strokeColor=#000000;" vertex="1" parent="nnEQlcjSg8EqqNv9_jPq-1">
          <mxGeometry x="120" y="80" width="200" height="880" as="geometry" />
        </mxCell>
        <mxCell id="Gp1zR7eavyP5q6iyYhlP-25" value="" style="ellipse;html=1;shape=startState;fillColor=#000000;strokeColor=#FF0000;hachureGap=4;pointerEvents=0;fontFamily=Times New Roman;fontSize=12;align=center;" vertex="1" parent="Gp1zR7eavyP5q6iyYhlP-24">
          <mxGeometry x="85" y="60" width="30" height="30" as="geometry" />
        </mxCell>
        <mxCell id="Gp1zR7eavyP5q6iyYhlP-26" value="&lt;font style=&quot;font-size: 12px&quot;&gt;Mulai&lt;/font&gt;" style="text;html=1;strokeColor=none;fillColor=none;align=center;verticalAlign=middle;whiteSpace=wrap;rounded=0;hachureGap=4;pointerEvents=0;fontFamily=Times New Roman;fontSize=8;" vertex="1" parent="Gp1zR7eavyP5q6iyYhlP-24">
          <mxGeometry x="70" y="40" width="60" height="30" as="geometry" />
        </mxCell>
        <mxCell id="Gp1zR7eavyP5q6iyYhlP-37" value="Menyerahkan Berkas Persyaratan Permohonan" style="rounded=1;whiteSpace=wrap;html=1;arcSize=40;fontColor=#000000;fillColor=#B9E0A5;strokeColor=#FF0000;hachureGap=4;pointerEvents=0;fontFamily=Times New Roman;fontSize=11;align=center;" vertex="1" parent="Gp1zR7eavyP5q6iyYhlP-24">
          <mxGeometry x="40" y="200" width="120" height="40" as="geometry" />
        </mxCell>
        <mxCell id="Gp1zR7eavyP5q6iyYhlP-27" value="Staff Administrasi" style="swimlane;startSize=20;hachureGap=4;pointerEvents=0;fontFamily=Times New Roman;fontSize=12;align=center;fillColor=none;strokeColor=#000000;" vertex="1" parent="nnEQlcjSg8EqqNv9_jPq-1">
          <mxGeometry x="320" y="80" width="200" height="880" as="geometry" />
        </mxCell>
        <mxCell id="DsfHyUygl1TfHLJwQq6e-9" style="edgeStyle=none;curved=1;rounded=0;hachureGap=4;orthogonalLoop=1;jettySize=auto;html=1;exitX=0.5;exitY=1;exitDx=0;exitDy=0;entryX=0.5;entryY=0;entryDx=0;entryDy=0;fontFamily=Times New Roman;fontSize=11;endArrow=open;endFill=0;startSize=14;endSize=8;sourcePerimeterSpacing=8;targetPerimeterSpacing=8;strokeColor=#FF0000;" edge="1" parent="Gp1zR7eavyP5q6iyYhlP-27" source="Gp1zR7eavyP5q6iyYhlP-28" target="DsfHyUygl1TfHLJwQq6e-5">
          <mxGeometry relative="1" as="geometry" />
        </mxCell>
        <mxCell id="Gp1zR7eavyP5q6iyYhlP-28" value="Memeriksa Kelengkapan Berkas Persyaratan" style="rounded=1;whiteSpace=wrap;html=1;arcSize=40;fontColor=#000000;fillColor=#B9E0A5;strokeColor=#FF0000;hachureGap=4;pointerEvents=0;fontFamily=Times New Roman;fontSize=11;align=center;" vertex="1" parent="Gp1zR7eavyP5q6iyYhlP-27">
          <mxGeometry x="40" y="200" width="120" height="40" as="geometry" />
        </mxCell>
        <mxCell id="WouqY0OHjDTVxSUwYaX0-3" style="edgeStyle=orthogonalEdgeStyle;rounded=0;hachureGap=4;orthogonalLoop=1;jettySize=auto;html=1;exitX=0.5;exitY=1;exitDx=0;exitDy=0;entryX=0.5;entryY=0;entryDx=0;entryDy=0;labelBackgroundColor=#FFFFFF;fontFamily=Times New Roman;fontSize=11;endArrow=open;endFill=0;startSize=14;endSize=8;sourcePerimeterSpacing=8;targetPerimeterSpacing=8;strokeColor=#FF0000;" edge="1" parent="Gp1zR7eavyP5q6iyYhlP-27" source="Gp1zR7eavyP5q6iyYhlP-29" target="WouqY0OHjDTVxSUwYaX0-2">
          <mxGeometry relative="1" as="geometry" />
        </mxCell>
        <mxCell id="Gp1zR7eavyP5q6iyYhlP-29" value="Membuat Surat yang Diminta" style="rounded=1;whiteSpace=wrap;html=1;arcSize=40;fontColor=#000000;fillColor=#B9E0A5;strokeColor=#FF0000;hachureGap=4;pointerEvents=0;fontFamily=Times New Roman;fontSize=11;align=center;" vertex="1" parent="Gp1zR7eavyP5q6iyYhlP-27">
          <mxGeometry x="40" y="360" width="120" height="40" as="geometry" />
        </mxCell>
        <mxCell id="Gp1zR7eavyP5q6iyYhlP-32" value="Meminta Legalisir dan TTD Kepala Desa" style="rounded=1;whiteSpace=wrap;html=1;arcSize=40;fontColor=#000000;fillColor=#B9E0A5;strokeColor=#FF0000;hachureGap=4;pointerEvents=0;fontFamily=Times New Roman;fontSize=11;align=center;" vertex="1" parent="Gp1zR7eavyP5q6iyYhlP-27">
          <mxGeometry x="40" y="500" width="120" height="40" as="geometry" />
        </mxCell>
        <mxCell id="DsfHyUygl1TfHLJwQq6e-4" value="Y" style="edgeStyle=orthogonalEdgeStyle;rounded=0;hachureGap=4;orthogonalLoop=1;jettySize=auto;html=1;exitX=0.5;exitY=1;exitDx=0;exitDy=0;entryX=0.5;entryY=0;entryDx=0;entryDy=0;fontFamily=Times New Roman;fontSize=11;endArrow=open;startSize=14;endSize=8;sourcePerimeterSpacing=8;targetPerimeterSpacing=8;strokeColor=#FF0000;" edge="1" parent="Gp1zR7eavyP5q6iyYhlP-27" source="DsfHyUygl1TfHLJwQq6e-5">
          <mxGeometry x="-0.3333" y="-10" relative="1" as="geometry">
            <mxPoint as="offset" />
            <mxPoint x="100" y="360" as="targetPoint" />
          </mxGeometry>
        </mxCell>
        <mxCell id="DsfHyUygl1TfHLJwQq6e-5" value="Data &lt;br style=&quot;font-size: 11px;&quot;&gt;Valid?" style="rhombus;whiteSpace=wrap;html=1;fillColor=#B9E0A5;strokeColor=#FF0000;hachureGap=4;pointerEvents=0;fontFamily=Times New Roman;fontSize=11;align=center;" vertex="1" parent="Gp1zR7eavyP5q6iyYhlP-27">
          <mxGeometry x="60" y="270" width="80" height="60" as="geometry" />
        </mxCell>
        <mxCell id="WouqY0OHjDTVxSUwYaX0-4" style="edgeStyle=orthogonalEdgeStyle;rounded=0;hachureGap=4;orthogonalLoop=1;jettySize=auto;html=1;exitX=0.5;exitY=1;exitDx=0;exitDy=0;entryX=0.5;entryY=0;entryDx=0;entryDy=0;labelBackgroundColor=#FFFFFF;fontFamily=Times New Roman;fontSize=11;endArrow=open;endFill=0;startSize=14;endSize=8;sourcePerimeterSpacing=8;targetPerimeterSpacing=8;strokeColor=#FF0000;" edge="1" parent="Gp1zR7eavyP5q6iyYhlP-27" source="WouqY0OHjDTVxSUwYaX0-2" target="Gp1zR7eavyP5q6iyYhlP-32">
          <mxGeometry relative="1" as="geometry" />
        </mxCell>
        <mxCell id="WouqY0OHjDTVxSUwYaX0-2" value="Mencetak Surat" style="rounded=1;whiteSpace=wrap;html=1;arcSize=40;fontColor=#000000;fillColor=#B9E0A5;strokeColor=#FF0000;hachureGap=4;pointerEvents=0;fontFamily=Times New Roman;fontSize=11;align=center;" vertex="1" parent="Gp1zR7eavyP5q6iyYhlP-27">
          <mxGeometry x="40" y="430" width="120" height="40" as="geometry" />
        </mxCell>
        <mxCell id="7JWI9a8jckN2q67RNYAM-6" style="edgeStyle=none;rounded=0;hachureGap=4;orthogonalLoop=1;jettySize=auto;html=1;exitX=0.5;exitY=1;exitDx=0;exitDy=0;entryX=0.5;entryY=0;entryDx=0;entryDy=0;labelBackgroundColor=default;fontFamily=Times New Roman;fontSize=12;fontColor=#000000;startArrow=none;startFill=0;endArrow=open;endFill=0;startSize=8;endSize=8;sourcePerimeterSpacing=8;targetPerimeterSpacing=8;strokeColor=#FF0000;" edge="1" parent="Gp1zR7eavyP5q6iyYhlP-27" source="Gp1zR7eavyP5q6iyYhlP-53" target="7JWI9a8jckN2q67RNYAM-4">
          <mxGeometry relative="1" as="geometry" />
        </mxCell>
        <mxCell id="Gp1zR7eavyP5q6iyYhlP-53" value="Mencatat Laporan" style="rounded=1;whiteSpace=wrap;html=1;arcSize=40;fontColor=#000000;fillColor=#B9E0A5;strokeColor=#FF0000;hachureGap=4;pointerEvents=0;fontFamily=Times New Roman;fontSize=11;align=center;" vertex="1" parent="Gp1zR7eavyP5q6iyYhlP-27">
          <mxGeometry x="40" y="640" width="120" height="40" as="geometry" />
        </mxCell>
        <mxCell id="WouqY0OHjDTVxSUwYaX0-13" value="Menyerahkan Surat" style="rounded=1;whiteSpace=wrap;html=1;arcSize=40;fontColor=#000000;fillColor=#B9E0A5;strokeColor=#FF0000;hachureGap=4;pointerEvents=0;fontFamily=Times New Roman;fontSize=11;align=center;" vertex="1" parent="Gp1zR7eavyP5q6iyYhlP-27">
          <mxGeometry x="40" y="570" width="120" height="40" as="geometry" />
        </mxCell>
        <mxCell id="Gp1zR7eavyP5q6iyYhlP-48" style="edgeStyle=orthogonalEdgeStyle;rounded=0;hachureGap=4;orthogonalLoop=1;jettySize=auto;html=1;entryX=0.5;entryY=0;entryDx=0;entryDy=0;fontFamily=Times New Roman;fontSize=8;endArrow=open;startSize=14;endSize=8;sourcePerimeterSpacing=8;targetPerimeterSpacing=8;strokeColor=#FF0000;" edge="1" parent="Gp1zR7eavyP5q6iyYhlP-27" target="Gp1zR7eavyP5q6iyYhlP-62">
          <mxGeometry relative="1" as="geometry">
            <mxPoint x="300" y="700" as="targetPoint" />
            <mxPoint x="300" y="750" as="sourcePoint" />
          </mxGeometry>
        </mxCell>
        <mxCell id="Gp1zR7eavyP5q6iyYhlP-61" value="" style="group" vertex="1" connectable="0" parent="Gp1zR7eavyP5q6iyYhlP-27">
          <mxGeometry x="270" y="810" width="60" height="55" as="geometry" />
        </mxCell>
        <mxCell id="Gp1zR7eavyP5q6iyYhlP-62" value="" style="ellipse;html=1;shape=endState;fillColor=#000000;strokeColor=#ff0000;hachureGap=4;pointerEvents=0;fontFamily=Times New Roman;fontSize=12;align=center;" vertex="1" parent="Gp1zR7eavyP5q6iyYhlP-61">
          <mxGeometry x="15" width="30" height="30" as="geometry" />
        </mxCell>
        <mxCell id="Gp1zR7eavyP5q6iyYhlP-63" value="&lt;font style=&quot;font-size: 12px&quot;&gt;Selesai&lt;/font&gt;" style="text;html=1;strokeColor=none;fillColor=none;align=center;verticalAlign=middle;whiteSpace=wrap;rounded=0;hachureGap=4;pointerEvents=0;fontFamily=Times New Roman;fontSize=8;" vertex="1" parent="Gp1zR7eavyP5q6iyYhlP-61">
          <mxGeometry y="25" width="60" height="30" as="geometry" />
        </mxCell>
        <mxCell id="7JWI9a8jckN2q67RNYAM-4" value="Menyerahkan Laporan" style="rounded=1;whiteSpace=wrap;html=1;arcSize=40;fontColor=#000000;fillColor=#B9E0A5;strokeColor=#FF0000;hachureGap=4;pointerEvents=0;fontFamily=Times New Roman;fontSize=11;align=center;" vertex="1" parent="Gp1zR7eavyP5q6iyYhlP-27">
          <mxGeometry x="40" y="710" width="120" height="40" as="geometry" />
        </mxCell>
        <mxCell id="DsfHyUygl1TfHLJwQq6e-7" style="edgeStyle=none;curved=1;rounded=0;hachureGap=4;orthogonalLoop=1;jettySize=auto;html=1;exitX=0.5;exitY=1;exitDx=0;exitDy=0;entryX=0.5;entryY=0;entryDx=0;entryDy=0;fontFamily=Times New Roman;fontSize=11;endArrow=open;endFill=0;startSize=14;endSize=8;sourcePerimeterSpacing=8;targetPerimeterSpacing=8;strokeColor=#FF0000;" edge="1" parent="nnEQlcjSg8EqqNv9_jPq-1" source="Gp1zR7eavyP5q6iyYhlP-35" target="Gp1zR7eavyP5q6iyYhlP-37">
          <mxGeometry relative="1" as="geometry" />
        </mxCell>
        <mxCell id="Gp1zR7eavyP5q6iyYhlP-35" value="Membawa Berkas Persyaratan" style="rounded=1;whiteSpace=wrap;html=1;arcSize=40;fontColor=#000000;fillColor=#B9E0A5;strokeColor=#FF0000;hachureGap=4;pointerEvents=0;fontFamily=Times New Roman;fontSize=11;align=center;" vertex="1" parent="nnEQlcjSg8EqqNv9_jPq-1">
          <mxGeometry x="160" y="200" width="120" height="40" as="geometry" />
        </mxCell>
        <mxCell id="Gp1zR7eavyP5q6iyYhlP-42" value="" style="edgeStyle=orthogonalEdgeStyle;html=1;verticalAlign=bottom;endArrow=open;endSize=8;strokeColor=#FF0000;rounded=0;hachureGap=4;fontFamily=Times New Roman;fontSize=12;sourcePerimeterSpacing=8;targetPerimeterSpacing=8;curved=1;entryX=0.5;entryY=0;entryDx=0;entryDy=0;exitX=0.502;exitY=0.862;exitDx=0;exitDy=0;exitPerimeter=0;" edge="1" parent="nnEQlcjSg8EqqNv9_jPq-1" source="Gp1zR7eavyP5q6iyYhlP-25" target="Gp1zR7eavyP5q6iyYhlP-35">
          <mxGeometry relative="1" as="geometry">
            <mxPoint x="220" y="205" as="targetPoint" />
          </mxGeometry>
        </mxCell>
        <mxCell id="WouqY0OHjDTVxSUwYaX0-16" style="edgeStyle=orthogonalEdgeStyle;rounded=0;hachureGap=4;orthogonalLoop=1;jettySize=auto;html=1;exitX=0.5;exitY=1;exitDx=0;exitDy=0;entryX=0;entryY=0.5;entryDx=0;entryDy=0;labelBackgroundColor=#FFFFFF;fontFamily=Times New Roman;fontSize=11;endArrow=open;endFill=0;startSize=14;endSize=8;sourcePerimeterSpacing=8;targetPerimeterSpacing=8;strokeColor=#FF0000;" edge="1" parent="nnEQlcjSg8EqqNv9_jPq-1" source="Gp1zR7eavyP5q6iyYhlP-44" target="Gp1zR7eavyP5q6iyYhlP-53">
          <mxGeometry relative="1" as="geometry" />
        </mxCell>
        <mxCell id="Gp1zR7eavyP5q6iyYhlP-44" value="Surat Selesai" style="rounded=1;whiteSpace=wrap;html=1;arcSize=40;fontColor=#000000;fillColor=#B9E0A5;strokeColor=#FF0000;hachureGap=4;pointerEvents=0;fontFamily=Times New Roman;fontSize=11;align=center;" vertex="1" parent="nnEQlcjSg8EqqNv9_jPq-1">
          <mxGeometry x="160" y="650" width="120" height="40" as="geometry" />
        </mxCell>
        <mxCell id="Gp1zR7eavyP5q6iyYhlP-45" value="no" style="edgeStyle=orthogonalEdgeStyle;rounded=0;hachureGap=4;orthogonalLoop=1;jettySize=auto;html=1;exitX=0.5;exitY=0;exitDx=0;exitDy=0;entryX=0.5;entryY=1;entryDx=0;entryDy=0;fontFamily=Times New Roman;fontSize=8;endArrow=open;startSize=14;endSize=8;sourcePerimeterSpacing=8;targetPerimeterSpacing=8;strokeColor=#FF0000;" edge="1" parent="nnEQlcjSg8EqqNv9_jPq-1" target="Gp1zR7eavyP5q6iyYhlP-33">
          <mxGeometry x="-0.3333" relative="1" as="geometry">
            <mxPoint as="offset" />
            <mxPoint x="420" y="720" as="sourcePoint" />
          </mxGeometry>
        </mxCell>
        <mxCell id="DsfHyUygl1TfHLJwQq6e-0" value="Kepala Desa" style="swimlane;startSize=20;hachureGap=4;pointerEvents=0;fontFamily=Times New Roman;fontSize=12;align=center;fillColor=none;strokeColor=#000000;" vertex="1" parent="nnEQlcjSg8EqqNv9_jPq-1">
          <mxGeometry x="520" y="80" width="200" height="880" as="geometry" />
        </mxCell>
        <mxCell id="WouqY0OHjDTVxSUwYaX0-9" value="Melegalisir dan TTD Surat" style="rounded=1;whiteSpace=wrap;html=1;arcSize=40;fontColor=#000000;fillColor=#B9E0A5;strokeColor=#FF0000;hachureGap=4;pointerEvents=0;fontFamily=Times New Roman;fontSize=11;align=center;" vertex="1" parent="DsfHyUygl1TfHLJwQq6e-0">
          <mxGeometry x="40" y="500" width="120" height="40" as="geometry" />
        </mxCell>
        <mxCell id="7JWI9a8jckN2q67RNYAM-5" value="Menerima Laporan" style="rounded=1;whiteSpace=wrap;html=1;arcSize=40;fontColor=#000000;fillColor=#B9E0A5;strokeColor=#FF0000;hachureGap=4;pointerEvents=0;fontFamily=Times New Roman;fontSize=11;align=center;" vertex="1" parent="DsfHyUygl1TfHLJwQq6e-0">
          <mxGeometry x="40" y="710" width="120" height="40" as="geometry" />
        </mxCell>
        <mxCell id="DsfHyUygl1TfHLJwQq6e-8" style="edgeStyle=none;curved=1;rounded=0;hachureGap=4;orthogonalLoop=1;jettySize=auto;html=1;exitX=1;exitY=0.5;exitDx=0;exitDy=0;entryX=0;entryY=0.5;entryDx=0;entryDy=0;fontFamily=Times New Roman;fontSize=11;endArrow=open;endFill=0;startSize=14;endSize=8;sourcePerimeterSpacing=8;targetPerimeterSpacing=8;strokeColor=#FF0000;" edge="1" parent="nnEQlcjSg8EqqNv9_jPq-1" source="Gp1zR7eavyP5q6iyYhlP-37" target="Gp1zR7eavyP5q6iyYhlP-28">
          <mxGeometry relative="1" as="geometry" />
        </mxCell>
        <mxCell id="WouqY0OHjDTVxSUwYaX0-0" value="&lt;font style=&quot;font-size: 11px; background-color: rgb(255, 255, 255);&quot;&gt;N&lt;/font&gt;" style="edgeStyle=orthogonalEdgeStyle;rounded=0;hachureGap=4;orthogonalLoop=1;jettySize=auto;html=1;exitX=0;exitY=0.5;exitDx=0;exitDy=0;entryX=0.5;entryY=1;entryDx=0;entryDy=0;fontFamily=Times New Roman;fontSize=11;endArrow=open;endFill=0;startSize=14;endSize=8;sourcePerimeterSpacing=8;targetPerimeterSpacing=8;strokeColor=#FF0000;" edge="1" parent="nnEQlcjSg8EqqNv9_jPq-1" source="DsfHyUygl1TfHLJwQq6e-5" target="Gp1zR7eavyP5q6iyYhlP-37">
          <mxGeometry x="-0.9091" y="-10" relative="1" as="geometry">
            <mxPoint as="offset" />
          </mxGeometry>
        </mxCell>
        <mxCell id="WouqY0OHjDTVxSUwYaX0-10" style="edgeStyle=orthogonalEdgeStyle;rounded=0;hachureGap=4;orthogonalLoop=1;jettySize=auto;html=1;exitX=1;exitY=0.5;exitDx=0;exitDy=0;entryX=0;entryY=0.5;entryDx=0;entryDy=0;labelBackgroundColor=#FFFFFF;fontFamily=Times New Roman;fontSize=11;endArrow=open;endFill=0;startSize=14;endSize=8;sourcePerimeterSpacing=8;targetPerimeterSpacing=8;strokeColor=#FF0000;" edge="1" parent="nnEQlcjSg8EqqNv9_jPq-1" source="Gp1zR7eavyP5q6iyYhlP-32" target="WouqY0OHjDTVxSUwYaX0-9">
          <mxGeometry relative="1" as="geometry" />
        </mxCell>
        <mxCell id="WouqY0OHjDTVxSUwYaX0-14" style="edgeStyle=orthogonalEdgeStyle;rounded=0;hachureGap=4;orthogonalLoop=1;jettySize=auto;html=1;exitX=0.5;exitY=1;exitDx=0;exitDy=0;entryX=1;entryY=0.5;entryDx=0;entryDy=0;labelBackgroundColor=#FFFFFF;fontFamily=Times New Roman;fontSize=11;endArrow=open;endFill=0;startSize=14;endSize=8;sourcePerimeterSpacing=8;targetPerimeterSpacing=8;strokeColor=#FF0000;" edge="1" parent="nnEQlcjSg8EqqNv9_jPq-1" source="WouqY0OHjDTVxSUwYaX0-9" target="WouqY0OHjDTVxSUwYaX0-13">
          <mxGeometry relative="1" as="geometry" />
        </mxCell>
        <mxCell id="WouqY0OHjDTVxSUwYaX0-15" style="edgeStyle=orthogonalEdgeStyle;rounded=0;hachureGap=4;orthogonalLoop=1;jettySize=auto;html=1;exitX=0;exitY=0.5;exitDx=0;exitDy=0;entryX=1;entryY=0.5;entryDx=0;entryDy=0;labelBackgroundColor=#FFFFFF;fontFamily=Times New Roman;fontSize=11;endArrow=open;endFill=0;startSize=14;endSize=8;sourcePerimeterSpacing=8;targetPerimeterSpacing=8;strokeColor=#FF0000;" edge="1" parent="nnEQlcjSg8EqqNv9_jPq-1" source="WouqY0OHjDTVxSUwYaX0-13" target="Gp1zR7eavyP5q6iyYhlP-44">
          <mxGeometry relative="1" as="geometry" />
        </mxCell>
        <mxCell id="QlBk0HFEvFNq72E6Q_7V-28" style="edgeStyle=none;curved=1;rounded=0;hachureGap=4;orthogonalLoop=1;jettySize=auto;html=1;exitX=1;exitY=0.5;exitDx=0;exitDy=0;entryX=0;entryY=0.5;entryDx=0;entryDy=0;fontFamily=Times New Roman;fontSize=11;endArrow=open;endFill=0;startSize=14;endSize=8;sourcePerimeterSpacing=8;targetPerimeterSpacing=8;strokeColor=#FF0000;" edge="1" source="QlBk0HFEvFNq72E6Q_7V-4" parent="nnEQlcjSg8EqqNv9_jPq-1">
          <mxGeometry relative="1" as="geometry">
            <mxPoint x="1120" y="300" as="targetPoint" />
          </mxGeometry>
        </mxCell>
        <mxCell id="QlBk0HFEvFNq72E6Q_7V-29" value="&lt;font style=&quot;font-size: 11px; background-color: rgb(255, 255, 255);&quot;&gt;N&lt;/font&gt;" style="edgeStyle=orthogonalEdgeStyle;rounded=0;hachureGap=4;orthogonalLoop=1;jettySize=auto;html=1;exitX=0;exitY=0.5;exitDx=0;exitDy=0;entryX=0.5;entryY=1;entryDx=0;entryDy=0;fontFamily=Times New Roman;fontSize=11;endArrow=open;endFill=0;startSize=14;endSize=8;sourcePerimeterSpacing=8;targetPerimeterSpacing=8;strokeColor=#FF0000;" edge="1" target="QlBk0HFEvFNq72E6Q_7V-4" parent="nnEQlcjSg8EqqNv9_jPq-1">
          <mxGeometry x="-0.9091" y="-10" relative="1" as="geometry">
            <mxPoint x="1140" y="380" as="sourcePoint" />
            <mxPoint as="offset" />
          </mxGeometry>
        </mxCell>
        <mxCell id="7JWI9a8jckN2q67RNYAM-7" style="edgeStyle=none;rounded=0;hachureGap=4;orthogonalLoop=1;jettySize=auto;html=1;exitX=1;exitY=0.5;exitDx=0;exitDy=0;entryX=0;entryY=0.5;entryDx=0;entryDy=0;labelBackgroundColor=default;fontFamily=Times New Roman;fontSize=12;fontColor=#000000;startArrow=none;startFill=0;endArrow=open;endFill=0;startSize=8;endSize=8;sourcePerimeterSpacing=8;targetPerimeterSpacing=8;strokeColor=#FF0000;" edge="1" parent="nnEQlcjSg8EqqNv9_jPq-1" source="7JWI9a8jckN2q67RNYAM-4" target="7JWI9a8jckN2q67RNYAM-5">
          <mxGeometry relative="1" as="geometry" />
        </mxCell>
      </root>
    </mxGraphModel>
  </diagram>
  <diagram name="sd-diagram" id="3OV9-61MqyzOvBWH_8FT">
    <mxGraphModel dx="641" dy="796" grid="1" gridSize="10" guides="1" tooltips="1" connect="1" arrows="1" fold="1" page="1" pageScale="1" pageWidth="827" pageHeight="1169" math="0" shadow="0">
      <root>
        <mxCell id="6C3uVhoa1gSc6qPJfQHK-0" />
        <mxCell id="6C3uVhoa1gSc6qPJfQHK-1" parent="6C3uVhoa1gSc6qPJfQHK-0" />
        <mxCell id="6C3uVhoa1gSc6qPJfQHK-30" value="no" style="edgeStyle=orthogonalEdgeStyle;rounded=0;hachureGap=4;orthogonalLoop=1;jettySize=auto;html=1;exitX=0.5;exitY=0;exitDx=0;exitDy=0;entryX=0.5;entryY=1;entryDx=0;entryDy=0;fontFamily=Times New Roman;fontSize=8;endArrow=open;startSize=14;endSize=8;sourcePerimeterSpacing=8;targetPerimeterSpacing=8;strokeColor=#FF0000;" edge="1" parent="6C3uVhoa1gSc6qPJfQHK-1">
          <mxGeometry x="-0.3333" relative="1" as="geometry">
            <mxPoint as="offset" />
            <mxPoint x="420" y="720" as="sourcePoint" />
          </mxGeometry>
        </mxCell>
        <mxCell id="6C3uVhoa1gSc6qPJfQHK-39" style="edgeStyle=none;curved=1;rounded=0;hachureGap=4;orthogonalLoop=1;jettySize=auto;html=1;exitX=1;exitY=0.5;exitDx=0;exitDy=0;entryX=0;entryY=0.5;entryDx=0;entryDy=0;fontFamily=Times New Roman;fontSize=11;endArrow=open;endFill=0;startSize=14;endSize=8;sourcePerimeterSpacing=8;targetPerimeterSpacing=8;strokeColor=#FF0000;" edge="1" parent="6C3uVhoa1gSc6qPJfQHK-1">
          <mxGeometry relative="1" as="geometry">
            <mxPoint x="1120" y="300" as="targetPoint" />
          </mxGeometry>
        </mxCell>
        <mxCell id="6C3uVhoa1gSc6qPJfQHK-40" value="&lt;font style=&quot;font-size: 11px; background-color: rgb(255, 255, 255);&quot;&gt;N&lt;/font&gt;" style="edgeStyle=orthogonalEdgeStyle;rounded=0;hachureGap=4;orthogonalLoop=1;jettySize=auto;html=1;exitX=0;exitY=0.5;exitDx=0;exitDy=0;entryX=0.5;entryY=1;entryDx=0;entryDy=0;fontFamily=Times New Roman;fontSize=11;endArrow=open;endFill=0;startSize=14;endSize=8;sourcePerimeterSpacing=8;targetPerimeterSpacing=8;strokeColor=#FF0000;" edge="1" parent="6C3uVhoa1gSc6qPJfQHK-1">
          <mxGeometry x="-0.9091" y="-10" relative="1" as="geometry">
            <mxPoint x="1140" y="380" as="sourcePoint" />
            <mxPoint as="offset" />
          </mxGeometry>
        </mxCell>
        <mxCell id="6C3uVhoa1gSc6qPJfQHK-42" value="&lt;b style=&quot;font-size: x-small&quot;&gt;sd SISTEM YANG BERJALAN&lt;/b&gt;" style="shape=umlFrame;whiteSpace=wrap;html=1;hachureGap=4;pointerEvents=0;fontFamily=Times New Roman;fontSize=20;width=210;height=20;fillColor=#97D077;strokeColor=#909090;fontColor=#1A1A1A;align=left;" vertex="1" parent="6C3uVhoa1gSc6qPJfQHK-1">
          <mxGeometry x="880" y="40" width="680" height="640" as="geometry" />
        </mxCell>
        <mxCell id="6C3uVhoa1gSc6qPJfQHK-43" value="&lt;font color=&quot;#000000&quot; style=&quot;background-color: rgb(255, 255, 255); font-size: 12px;&quot;&gt;Pemohon&lt;/font&gt;" style="shape=umlLifeline;participant=umlActor;perimeter=lifelinePerimeter;whiteSpace=wrap;html=1;container=1;collapsible=0;recursiveResize=0;verticalAlign=top;spacingTop=36;outlineConnect=0;labelBackgroundColor=none;hachureGap=4;fontFamily=Times New Roman;fontSize=12;fontColor=#FFFFFF;strokeColor=#000000;fillColor=#B9E0A5;gradientColor=none;" vertex="1" parent="6C3uVhoa1gSc6qPJfQHK-1">
          <mxGeometry x="923" y="80" width="20" height="560" as="geometry" />
        </mxCell>
        <mxCell id="6C3uVhoa1gSc6qPJfQHK-44" value="" style="html=1;points=[];perimeter=orthogonalPerimeter;labelBackgroundColor=#FFFFFF;hachureGap=4;fontFamily=Times New Roman;fontSize=12;fontColor=#000000;strokeColor=#000000;fillColor=#B9E0A5;gradientColor=none;" vertex="1" parent="6C3uVhoa1gSc6qPJfQHK-43">
          <mxGeometry x="5" y="94" width="10" height="336" as="geometry" />
        </mxCell>
        <mxCell id="6C3uVhoa1gSc6qPJfQHK-45" value="&lt;font color=&quot;#000000&quot; style=&quot;background-color: rgb(255, 255, 255); font-size: 12px;&quot;&gt;Staff Administrasi&lt;/font&gt;" style="shape=umlLifeline;participant=umlActor;perimeter=lifelinePerimeter;whiteSpace=wrap;html=1;container=1;collapsible=0;recursiveResize=0;verticalAlign=top;spacingTop=36;outlineConnect=0;labelBackgroundColor=none;hachureGap=4;fontFamily=Times New Roman;fontSize=12;fontColor=#FFFFFF;strokeColor=#000000;fillColor=#B9E0A5;gradientColor=none;" vertex="1" parent="6C3uVhoa1gSc6qPJfQHK-1">
          <mxGeometry x="1073" y="80" width="20" height="560" as="geometry" />
        </mxCell>
        <mxCell id="6C3uVhoa1gSc6qPJfQHK-46" value="" style="html=1;points=[];perimeter=orthogonalPerimeter;labelBackgroundColor=#FFFFFF;hachureGap=4;fontFamily=Times New Roman;fontSize=12;fontColor=#000000;strokeColor=#000000;fillColor=#B9E0A5;gradientColor=none;" vertex="1" parent="6C3uVhoa1gSc6qPJfQHK-45">
          <mxGeometry x="5" y="94" width="10" height="426" as="geometry" />
        </mxCell>
        <mxCell id="6C3uVhoa1gSc6qPJfQHK-47" value="" style="html=1;points=[];perimeter=orthogonalPerimeter;labelBackgroundColor=none;hachureGap=4;fontFamily=Times New Roman;fontSize=12;fontColor=#000000;strokeColor=#000000;fillColor=#B9E0A5;gradientColor=none;" vertex="1" parent="6C3uVhoa1gSc6qPJfQHK-45">
          <mxGeometry x="10" y="201" width="10" height="10" as="geometry" />
        </mxCell>
        <mxCell id="6C3uVhoa1gSc6qPJfQHK-48" value="&lt;font color=&quot;#000000&quot;&gt;&lt;span style=&quot;background-color: rgb(255 , 255 , 255)&quot;&gt;Kepala Desa&lt;/span&gt;&lt;/font&gt;" style="shape=umlLifeline;participant=umlActor;perimeter=lifelinePerimeter;whiteSpace=wrap;html=1;container=1;collapsible=0;recursiveResize=0;verticalAlign=top;spacingTop=36;outlineConnect=0;labelBackgroundColor=none;hachureGap=4;fontFamily=Times New Roman;fontSize=12;fontColor=#FFFFFF;strokeColor=#000000;fillColor=#B9E0A5;gradientColor=none;" vertex="1" parent="6C3uVhoa1gSc6qPJfQHK-1">
          <mxGeometry x="1513" y="80" width="20" height="560" as="geometry" />
        </mxCell>
        <mxCell id="6C3uVhoa1gSc6qPJfQHK-49" value="" style="html=1;points=[];perimeter=orthogonalPerimeter;labelBackgroundColor=#FFFFFF;hachureGap=4;fontFamily=Times New Roman;fontSize=12;fontColor=#000000;strokeColor=#000000;fillColor=#B9E0A5;gradientColor=none;" vertex="1" parent="6C3uVhoa1gSc6qPJfQHK-48">
          <mxGeometry x="5" y="350" width="10" height="160" as="geometry" />
        </mxCell>
        <mxCell id="6C3uVhoa1gSc6qPJfQHK-50" value="1 :Membawa Berkas" style="rounded=0;hachureGap=4;orthogonalLoop=1;jettySize=auto;html=1;labelBackgroundColor=default;fontFamily=Times New Roman;fontSize=12;fontColor=#000000;endArrow=block;endFill=1;startSize=14;endSize=8;sourcePerimeterSpacing=8;targetPerimeterSpacing=8;strokeColor=#FF0000;exitX=1.009;exitY=0.008;exitDx=0;exitDy=0;exitPerimeter=0;entryX=0.1;entryY=0.004;entryDx=0;entryDy=0;entryPerimeter=0;" edge="1" parent="6C3uVhoa1gSc6qPJfQHK-1" source="6C3uVhoa1gSc6qPJfQHK-44" target="6C3uVhoa1gSc6qPJfQHK-46">
          <mxGeometry y="10" relative="1" as="geometry">
            <mxPoint x="946" y="176" as="sourcePoint" />
            <mxPoint x="1073" y="176" as="targetPoint" />
            <mxPoint as="offset" />
          </mxGeometry>
        </mxCell>
        <mxCell id="6C3uVhoa1gSc6qPJfQHK-51" value="Berkas" style="shape=umlLifeline;perimeter=lifelinePerimeter;whiteSpace=wrap;html=1;container=1;collapsible=0;recursiveResize=0;outlineConnect=0;labelBackgroundColor=none;hachureGap=4;fontFamily=Times New Roman;fontSize=12;fontColor=#000000;strokeColor=#000000;fillColor=#B9E0A5;gradientColor=none;" vertex="1" parent="6C3uVhoa1gSc6qPJfQHK-1">
          <mxGeometry x="1198" y="80" width="70" height="560" as="geometry" />
        </mxCell>
        <mxCell id="6C3uVhoa1gSc6qPJfQHK-52" value="" style="html=1;points=[];perimeter=orthogonalPerimeter;labelBackgroundColor=none;hachureGap=4;fontFamily=Times New Roman;fontSize=12;fontColor=#000000;strokeColor=#000000;fillColor=#B9E0A5;gradientColor=none;" vertex="1" parent="6C3uVhoa1gSc6qPJfQHK-51">
          <mxGeometry x="30" y="165" width="10" height="15" as="geometry" />
        </mxCell>
        <mxCell id="6C3uVhoa1gSc6qPJfQHK-53" value="Surat" style="shape=umlLifeline;perimeter=lifelinePerimeter;whiteSpace=wrap;html=1;container=1;collapsible=0;recursiveResize=0;outlineConnect=0;labelBackgroundColor=none;hachureGap=4;fontFamily=Times New Roman;fontSize=12;fontColor=#000000;strokeColor=#000000;fillColor=#B9E0A5;gradientColor=none;" vertex="1" parent="6C3uVhoa1gSc6qPJfQHK-1">
          <mxGeometry x="1294" y="80" width="70" height="560" as="geometry" />
        </mxCell>
        <mxCell id="6C3uVhoa1gSc6qPJfQHK-54" value="" style="html=1;points=[];perimeter=orthogonalPerimeter;labelBackgroundColor=none;hachureGap=4;fontFamily=Times New Roman;fontSize=12;fontColor=#000000;strokeColor=#000000;fillColor=#B9E0A5;gradientColor=none;" vertex="1" parent="6C3uVhoa1gSc6qPJfQHK-53">
          <mxGeometry x="30" y="237" width="10" height="73" as="geometry" />
        </mxCell>
        <mxCell id="6C3uVhoa1gSc6qPJfQHK-55" value="Laporan" style="shape=umlLifeline;perimeter=lifelinePerimeter;whiteSpace=wrap;html=1;container=1;collapsible=0;recursiveResize=0;outlineConnect=0;labelBackgroundColor=none;hachureGap=4;fontFamily=Times New Roman;fontSize=12;fontColor=#000000;strokeColor=#000000;fillColor=#B9E0A5;gradientColor=none;" vertex="1" parent="6C3uVhoa1gSc6qPJfQHK-1">
          <mxGeometry x="1390" y="80" width="70" height="560" as="geometry" />
        </mxCell>
        <mxCell id="6C3uVhoa1gSc6qPJfQHK-56" value="" style="html=1;points=[];perimeter=orthogonalPerimeter;labelBackgroundColor=none;hachureGap=4;fontFamily=Times New Roman;fontSize=12;fontColor=#000000;strokeColor=#000000;fillColor=#B9E0A5;gradientColor=none;" vertex="1" parent="6C3uVhoa1gSc6qPJfQHK-55">
          <mxGeometry x="30" y="433" width="10" height="40" as="geometry" />
        </mxCell>
        <mxCell id="6C3uVhoa1gSc6qPJfQHK-57" value="2 :Menyerahkan Berkas" style="rounded=0;hachureGap=4;orthogonalLoop=1;jettySize=auto;html=1;labelBackgroundColor=default;fontFamily=Times New Roman;fontSize=12;fontColor=#000000;endArrow=block;endFill=1;startSize=14;endSize=8;sourcePerimeterSpacing=8;targetPerimeterSpacing=8;strokeColor=#FF0000;exitX=1.009;exitY=0.008;exitDx=0;exitDy=0;exitPerimeter=0;entryX=0.1;entryY=0.004;entryDx=0;entryDy=0;entryPerimeter=0;" edge="1" parent="6C3uVhoa1gSc6qPJfQHK-1">
          <mxGeometry y="10" relative="1" as="geometry">
            <mxPoint x="938.0900000000001" y="217.67999999999984" as="sourcePoint" />
            <mxPoint x="1079" y="216.83999999999992" as="targetPoint" />
            <mxPoint as="offset" />
          </mxGeometry>
        </mxCell>
        <mxCell id="6C3uVhoa1gSc6qPJfQHK-58" value="3 :Memeriksa Berkas" style="rounded=0;hachureGap=4;orthogonalLoop=1;jettySize=auto;html=1;labelBackgroundColor=default;fontFamily=Times New Roman;fontSize=12;fontColor=#000000;endArrow=block;endFill=1;startSize=14;endSize=8;sourcePerimeterSpacing=8;targetPerimeterSpacing=8;strokeColor=#FF0000;exitX=1.009;exitY=0.008;exitDx=0;exitDy=0;exitPerimeter=0;entryX=0.1;entryY=0.004;entryDx=0;entryDy=0;entryPerimeter=0;" edge="1" parent="6C3uVhoa1gSc6qPJfQHK-1">
          <mxGeometry y="10" relative="1" as="geometry">
            <mxPoint x="1088.0900000000001" y="245.67999999999984" as="sourcePoint" />
            <mxPoint x="1229" y="244.83999999999992" as="targetPoint" />
            <mxPoint as="offset" />
          </mxGeometry>
        </mxCell>
        <mxCell id="6C3uVhoa1gSc6qPJfQHK-59" value="5 :Membuat Surat yang Diminta" style="rounded=0;hachureGap=4;orthogonalLoop=1;jettySize=auto;html=1;labelBackgroundColor=default;fontFamily=Times New Roman;fontSize=12;fontColor=#000000;endArrow=block;endFill=1;startSize=14;endSize=8;sourcePerimeterSpacing=8;targetPerimeterSpacing=8;strokeColor=#FF0000;exitX=1.009;exitY=0.008;exitDx=0;exitDy=0;exitPerimeter=0;entryX=-0.019;entryY=-0.006;entryDx=0;entryDy=0;entryPerimeter=0;" edge="1" parent="6C3uVhoa1gSc6qPJfQHK-1" target="6C3uVhoa1gSc6qPJfQHK-54">
          <mxGeometry y="10" relative="1" as="geometry">
            <mxPoint x="1088" y="316.8399999999999" as="sourcePoint" />
            <mxPoint x="1293" y="317" as="targetPoint" />
            <mxPoint as="offset" />
          </mxGeometry>
        </mxCell>
        <mxCell id="6C3uVhoa1gSc6qPJfQHK-60" value="4 :Validasi" style="edgeStyle=orthogonalEdgeStyle;html=1;align=left;spacingLeft=2;endArrow=block;rounded=0;entryX=1;entryY=0;labelBackgroundColor=default;hachureGap=4;fontFamily=Times New Roman;fontSize=12;fontColor=#000000;startSize=14;endSize=8;sourcePerimeterSpacing=8;targetPerimeterSpacing=8;strokeColor=#FF0000;" edge="1" parent="6C3uVhoa1gSc6qPJfQHK-1">
          <mxGeometry relative="1" as="geometry">
            <mxPoint x="1089" y="267" as="sourcePoint" />
            <Array as="points">
              <mxPoint x="1119" y="267" />
            </Array>
            <mxPoint x="1094" y="287" as="targetPoint" />
          </mxGeometry>
        </mxCell>
        <mxCell id="6C3uVhoa1gSc6qPJfQHK-61" value="6 :Cetak Surat" style="rounded=0;hachureGap=4;orthogonalLoop=1;jettySize=auto;html=1;labelBackgroundColor=default;fontFamily=Times New Roman;fontSize=12;fontColor=#000000;endArrow=block;endFill=1;startSize=14;endSize=8;sourcePerimeterSpacing=8;targetPerimeterSpacing=8;strokeColor=#FF0000;exitX=1.009;exitY=0.008;exitDx=0;exitDy=0;exitPerimeter=0;entryX=-0.019;entryY=-0.006;entryDx=0;entryDy=0;entryPerimeter=0;" edge="1" parent="6C3uVhoa1gSc6qPJfQHK-1">
          <mxGeometry y="10" relative="1" as="geometry">
            <mxPoint x="1088" y="349.8399999999999" as="sourcePoint" />
            <mxPoint x="1323.81" y="349.7000000000003" as="targetPoint" />
            <mxPoint as="offset" />
          </mxGeometry>
        </mxCell>
        <mxCell id="6C3uVhoa1gSc6qPJfQHK-62" value="7 :Surat Selesai Cetak" style="rounded=0;hachureGap=4;orthogonalLoop=1;jettySize=auto;html=1;labelBackgroundColor=default;fontFamily=Times New Roman;fontSize=12;fontColor=#000000;endArrow=none;endFill=0;startSize=8;endSize=8;sourcePerimeterSpacing=8;targetPerimeterSpacing=8;strokeColor=#FF0000;exitX=1.009;exitY=0.008;exitDx=0;exitDy=0;exitPerimeter=0;entryX=-0.019;entryY=-0.006;entryDx=0;entryDy=0;entryPerimeter=0;startArrow=block;startFill=1;dashed=1;" edge="1" parent="6C3uVhoa1gSc6qPJfQHK-1">
          <mxGeometry y="10" relative="1" as="geometry">
            <mxPoint x="1088" y="378.84000000000015" as="sourcePoint" />
            <mxPoint x="1323.81" y="378.70000000000005" as="targetPoint" />
            <mxPoint as="offset" />
          </mxGeometry>
        </mxCell>
        <mxCell id="6C3uVhoa1gSc6qPJfQHK-63" value="8 :&lt;span style=&quot;font-size: 11px&quot;&gt;Meminta Legalisir dan TTD Kepala Desa&lt;/span&gt;" style="rounded=0;hachureGap=4;orthogonalLoop=1;jettySize=auto;html=1;labelBackgroundColor=default;fontFamily=Times New Roman;fontSize=12;fontColor=#000000;endArrow=block;endFill=1;startSize=14;endSize=8;sourcePerimeterSpacing=8;targetPerimeterSpacing=8;strokeColor=#FF0000;exitX=1.009;exitY=0.008;exitDx=0;exitDy=0;exitPerimeter=0;entryX=0.095;entryY=0.018;entryDx=0;entryDy=0;entryPerimeter=0;" edge="1" parent="6C3uVhoa1gSc6qPJfQHK-1" target="6C3uVhoa1gSc6qPJfQHK-49">
          <mxGeometry y="10" relative="1" as="geometry">
            <mxPoint x="1089" y="431.84000000000015" as="sourcePoint" />
            <mxPoint x="1324.81" y="431.70000000000005" as="targetPoint" />
            <mxPoint as="offset" />
          </mxGeometry>
        </mxCell>
        <mxCell id="6C3uVhoa1gSc6qPJfQHK-64" value="9 :&lt;span style=&quot;font-size: 11px&quot;&gt;Menyerahkan surat yang sudah di Legalisir dan TTD Kepala Desa&lt;/span&gt;" style="rounded=0;hachureGap=4;orthogonalLoop=1;jettySize=auto;html=1;labelBackgroundColor=default;fontFamily=Times New Roman;fontSize=12;fontColor=#000000;endArrow=none;endFill=0;startSize=8;endSize=8;sourcePerimeterSpacing=8;targetPerimeterSpacing=8;strokeColor=#FF0000;exitX=1.009;exitY=0.008;exitDx=0;exitDy=0;exitPerimeter=0;startArrow=block;startFill=1;entryX=-0.087;entryY=0.27;entryDx=0;entryDy=0;entryPerimeter=0;dashed=1;" edge="1" parent="6C3uVhoa1gSc6qPJfQHK-1" target="6C3uVhoa1gSc6qPJfQHK-49">
          <mxGeometry y="10" relative="1" as="geometry">
            <mxPoint x="1088" y="472.84000000000015" as="sourcePoint" />
            <mxPoint x="1503" y="473" as="targetPoint" />
            <mxPoint as="offset" />
          </mxGeometry>
        </mxCell>
        <mxCell id="6C3uVhoa1gSc6qPJfQHK-65" value="10 :Surat Selesai" style="rounded=0;hachureGap=4;orthogonalLoop=1;jettySize=auto;html=1;labelBackgroundColor=default;fontFamily=Times New Roman;fontSize=12;fontColor=#000000;endArrow=none;endFill=0;startSize=9;endSize=8;sourcePerimeterSpacing=8;targetPerimeterSpacing=8;strokeColor=#FF0000;exitX=1.009;exitY=0.008;exitDx=0;exitDy=0;exitPerimeter=0;entryX=0.1;entryY=0.004;entryDx=0;entryDy=0;entryPerimeter=0;startArrow=block;startFill=1;dashed=1;" edge="1" parent="6C3uVhoa1gSc6qPJfQHK-1">
          <mxGeometry y="10" relative="1" as="geometry">
            <mxPoint x="938.0900000000001" y="500.67999999999984" as="sourcePoint" />
            <mxPoint x="1079" y="499.8399999999997" as="targetPoint" />
            <mxPoint as="offset" />
          </mxGeometry>
        </mxCell>
        <mxCell id="6C3uVhoa1gSc6qPJfQHK-66" value="11 :&lt;span style=&quot;font-size: 11px&quot;&gt;Mencatat Laporan&lt;/span&gt;" style="rounded=0;hachureGap=4;orthogonalLoop=1;jettySize=auto;html=1;labelBackgroundColor=default;fontFamily=Times New Roman;fontSize=12;fontColor=#000000;endArrow=block;endFill=1;startSize=14;endSize=8;sourcePerimeterSpacing=8;targetPerimeterSpacing=8;strokeColor=#FF0000;exitX=1.009;exitY=0.008;exitDx=0;exitDy=0;exitPerimeter=0;entryX=-0.013;entryY=-0.023;entryDx=0;entryDy=0;entryPerimeter=0;" edge="1" parent="6C3uVhoa1gSc6qPJfQHK-1" target="6C3uVhoa1gSc6qPJfQHK-56">
          <mxGeometry y="10" relative="1" as="geometry">
            <mxPoint x="1088" y="512.8400000000004" as="sourcePoint" />
            <mxPoint x="1517.9499999999998" y="512.08" as="targetPoint" />
            <mxPoint as="offset" />
          </mxGeometry>
        </mxCell>
        <mxCell id="6C3uVhoa1gSc6qPJfQHK-67" value="12 :&lt;span style=&quot;font-size: 11px&quot;&gt;Selesai Mencatat Laporan&lt;/span&gt;" style="rounded=0;hachureGap=4;orthogonalLoop=1;jettySize=auto;html=1;labelBackgroundColor=default;fontFamily=Times New Roman;fontSize=12;fontColor=#000000;endArrow=none;endFill=0;startSize=8;endSize=8;sourcePerimeterSpacing=8;targetPerimeterSpacing=8;strokeColor=#FF0000;exitX=1.04;exitY=0.961;exitDx=0;exitDy=0;exitPerimeter=0;startArrow=block;startFill=1;entryX=0.021;entryY=0.788;entryDx=0;entryDy=0;entryPerimeter=0;dashed=1;" edge="1" parent="6C3uVhoa1gSc6qPJfQHK-1">
          <mxGeometry y="10" relative="1" as="geometry">
            <mxPoint x="1088.3999999999996" y="549.9459999999999" as="sourcePoint" />
            <mxPoint x="1420.21" y="549.52" as="targetPoint" />
            <mxPoint as="offset" />
          </mxGeometry>
        </mxCell>
        <mxCell id="6C3uVhoa1gSc6qPJfQHK-68" value="13 :&lt;span style=&quot;font-size: 11px&quot;&gt;Menyerahkan Laporan&lt;/span&gt;" style="rounded=0;hachureGap=4;orthogonalLoop=1;jettySize=auto;html=1;labelBackgroundColor=default;fontFamily=Times New Roman;fontSize=12;fontColor=#000000;endArrow=block;endFill=1;startSize=14;endSize=8;sourcePerimeterSpacing=8;targetPerimeterSpacing=8;strokeColor=#FF0000;entryX=0.102;entryY=0.993;entryDx=0;entryDy=0;entryPerimeter=0;exitX=1.04;exitY=0.977;exitDx=0;exitDy=0;exitPerimeter=0;" edge="1" parent="6C3uVhoa1gSc6qPJfQHK-1" source="6C3uVhoa1gSc6qPJfQHK-46" target="6C3uVhoa1gSc6qPJfQHK-49">
          <mxGeometry y="10" relative="1" as="geometry">
            <mxPoint x="1103" y="590" as="sourcePoint" />
            <mxPoint x="1180" y="590" as="targetPoint" />
            <mxPoint as="offset" />
          </mxGeometry>
        </mxCell>
      </root>
    </mxGraphModel>
  </diagram>
</mxfile>
